# xmcd
#
# Track frame offsets:
#	150
#	14714
#	33936
#	49634
#	73629
#	94976
#	122390
#	155035
#	177896
#	210727
#	228856
#	249888
#
# Disc length: 3592 seconds
#
# Revision: 1
# Processed by: cddbd v1.4PL0 Copyright (c) Steve Scherf et al.
# Submitted via: audiograbber 1.80.04
#
DISCID=980e060c
DTITLE=Various Artist - Blues: A Collection of Original French Quarter Blues
DYEAR=2002
DGENRE=Blues
TTITLE0=CP Love - Stubborn Girl
TTITLE1=CP Love - True Blue
TTITLE2=E.J. Phillips - Take My Hand
TTITLE3=E.J. Phillips - Willie Brown
TTITLE4=Chewy "Thunderfoot" Black - Your Time To Cry
TTITLE5=Chewy "Thunderfoot" Black - I Just Can't Stop Loving You
TTITLE6=Jeff Chaz - Everybody Knows
TTITLE7=Jeff Chaz - A Chill In The Air
TTITLE8=Bryan Lee - Blindness For A Weakness
TTITLE9=Bryan Lee - Bourbon Street Blues
TTITLE10=Willie Lockett and The Blues Krewe - How Long
TTITLE11=Willie Lockett and The Blues Krewe - Hearache and Loneliness
EXTD=
EXTT0=
EXTT1=
EXTT2=
EXTT3=
EXTT4=
EXTT5=
EXTT6=
EXTT7=
EXTT8=
EXTT9=
EXTT10=
EXTT11=
PLAYORDER=
